<svg id="visual" viewBox="0 0 900 600" width="900" height="600" xmlns="http://www.w3.org/2000/svg" xmlns:xlink="http://www.w3.org/1999/xlink" version="1.1"><rect x="0" y="0" width="900" height="600" fill="#6800fc"></rect><path d="M0 510L21.5 501.3C43 492.7 86 475.3 128.8 473C171.7 470.7 214.3 483.3 257.2 472.5C300 461.7 343 427.3 385.8 413.5C428.7 399.7 471.3 406.3 514.2 418.3C557 430.3 600 447.7 642.8 456.3C685.7 465 728.3 465 771.2 472.8C814 480.7 857 496.3 878.5 504.2L900 512L900 601L878.5 601C857 601 814 601 771.2 601C728.3 601 685.7 601 642.8 601C600 601 557 601 514.2 601C471.3 601 428.7 601 385.8 601C343 601 300 601 257.2 601C214.3 601 171.7 601 128.8 601C86 601 43 601 21.5 601L0 601Z" fill="#131519" stroke-linecap="round" stroke-linejoin="miter"></path></svg>