<svg id="visual" viewBox="0 0 960 500" width="960" height="500" xmlns="http://www.w3.org/2000/svg" xmlns:xlink="http://www.w3.org/1999/xlink" version="1.1"><rect x="0" y="0" width="960" height="500" fill="#131519"></rect><path d="M0 320L22.8 315.8C45.7 311.7 91.3 303.3 137 307.3C182.7 311.3 228.3 327.7 274 340.5C319.7 353.3 365.3 362.7 411.2 366C457 369.3 503 366.7 548.8 362.5C594.7 358.3 640.3 352.7 686 341.5C731.7 330.3 777.3 313.7 823 307.8C868.7 302 914.3 307 937.2 309.5L960 312L960 501L937.2 501C914.3 501 868.7 501 823 501C777.3 501 731.7 501 686 501C640.3 501 594.7 501 548.8 501C503 501 457 501 411.2 501C365.3 501 319.7 501 274 501C228.3 501 182.7 501 137 501C91.3 501 45.7 501 22.8 501L0 501Z" fill="#b187f6"></path><path d="M0 356L22.8 352.3C45.7 348.7 91.3 341.3 137 347.3C182.7 353.3 228.3 372.7 274 376.5C319.7 380.3 365.3 368.7 411.2 365.8C457 363 503 369 548.8 366.5C594.7 364 640.3 353 686 356.3C731.7 359.7 777.3 377.3 823 379.8C868.7 382.3 914.3 369.7 937.2 363.3L960 357L960 501L937.2 501C914.3 501 868.7 501 823 501C777.3 501 731.7 501 686 501C640.3 501 594.7 501 548.8 501C503 501 457 501 411.2 501C365.3 501 319.7 501 274 501C228.3 501 182.7 501 137 501C91.3 501 45.7 501 22.8 501L0 501Z" fill="#a26ff8"></path><path d="M0 424L22.8 418.7C45.7 413.3 91.3 402.7 137 403C182.7 403.3 228.3 414.7 274 415.7C319.7 416.7 365.3 407.3 411.2 399C457 390.7 503 383.3 548.8 381.2C594.7 379 640.3 382 686 385C731.7 388 777.3 391 823 388.5C868.7 386 914.3 378 937.2 374L960 370L960 501L937.2 501C914.3 501 868.7 501 823 501C777.3 501 731.7 501 686 501C640.3 501 594.7 501 548.8 501C503 501 457 501 411.2 501C365.3 501 319.7 501 274 501C228.3 501 182.7 501 137 501C91.3 501 45.7 501 22.8 501L0 501Z" fill="#9155fa"></path><path d="M0 432L22.8 435.3C45.7 438.7 91.3 445.3 137 440.5C182.7 435.7 228.3 419.3 274 413.7C319.7 408 365.3 413 411.2 420.3C457 427.7 503 437.3 548.8 438C594.7 438.7 640.3 430.3 686 430.7C731.7 431 777.3 440 823 442.7C868.7 445.3 914.3 441.7 937.2 439.8L960 438L960 501L937.2 501C914.3 501 868.7 501 823 501C777.3 501 731.7 501 686 501C640.3 501 594.7 501 548.8 501C503 501 457 501 411.2 501C365.3 501 319.7 501 274 501C228.3 501 182.7 501 137 501C91.3 501 45.7 501 22.8 501L0 501Z" fill="#7e37fb"></path><path d="M0 451L22.8 450C45.7 449 91.3 447 137 449.2C182.7 451.3 228.3 457.7 274 458.2C319.7 458.7 365.3 453.3 411.2 449.8C457 446.3 503 444.7 548.8 446.5C594.7 448.3 640.3 453.7 686 456.7C731.7 459.7 777.3 460.3 823 461C868.7 461.7 914.3 462.3 937.2 462.7L960 463L960 501L937.2 501C914.3 501 868.7 501 823 501C777.3 501 731.7 501 686 501C640.3 501 594.7 501 548.8 501C503 501 457 501 411.2 501C365.3 501 319.7 501 274 501C228.3 501 182.7 501 137 501C91.3 501 45.7 501 22.8 501L0 501Z" fill="#6800fc"></path></svg>